PathFileType	4	(X/Y/Z)	c:/Users/goper/Files/vsCode/490R/osim_files/A03/A03_Fast_02.trc
DataRate	CameraRate	NumFrames	NumMarkers	Units                	OrigDataRate	OrigDataStartFrame	OrigNumFrames
250.00	250.00	9	36	mm	250.0	1910	3055
                Frame#	Time	LPSIS			LASIS			LTH1			LTH2			LTH3			LTH4			LLFE			LMFE			LSH1			LSH2			LSH3			LSH4			LLMAL			LMMAL			LCAL			LMTP5			LTOE			LMTP1			RPSIS			RASIS			RTH1			RTH2			RTH3			RTH4			RLFE			RMFE			RSH1			RSH2			RSH3			RSH4			RLMAL			RMMAL			RCAL			RMTP1			RTOE			RMTP5		
		X1	Y1	Z1	X2	Y2	Z2	X3	Y3	Z3	X4	Y4	Z4	X5	Y5	Z5	X6	Y6	Z6	X7	Y7	Z7	X8	Y8	Z8	X9	Y9	Z9	X10	Y10	Z10	X11	Y11	Z11	X12	Y12	Z12	X13	Y13	Z13	X14	Y14	Z14	X15	Y15	Z15	X16	Y16	Z16	X17	Y17	Z17	X18	Y18	Z18	X19	Y19	Z19	X20	Y20	Z20	X21	Y21	Z21	X22	Y22	Z22	X23	Y23	Z23	X24	Y24	Z24	X25	Y25	Z25	X26	Y26	Z26	X27	Y27	Z27	X28	Y28	Z28	X29	Y29	Z29	X30	Y30	Z30	X31	Y31	Z31	X32	Y32	Z32	X33	Y33	Z33	X34	Y34	Z34	X35	Y35	Z35	X36	Y36	Z36

1910	7.63600	-2447.15527	1039.58008	276.76782	-2693.04712	951.18915	375.13568	-2764.62769	627.29712	414.49942	-2790.13208	593.35065	409.39960	-2815.74976	656.56299	389.96191	-2831.37012	615.87677	387.55927	-2790.79028	548.36584	401.32944	-2807.25146	547.69153	246.00096	-2769.33960	454.93051	400.78738	-2781.77588	408.52625	398.75833	-2830.88013	463.15775	393.83148	-2832.03442	415.44290	388.81573	-2857.30225	97.03503	364.09390	-2863.21509	105.38140	267.13693	-2786.02368	79.24359	315.29980	-3009.46313	50.24271	365.83383	-3034.21777	86.72633	296.96030	-3004.03809	63.10651	252.60719	-2443.48975	1049.76526	193.57265	-2656.46045	926.50494	77.36205	-2484.77002	588.38184	34.40116	-2476.74561	544.68445	39.92775	-2543.27637	571.49298	28.55726	-2528.82227	529.23615	35.72437	-2487.55713	505.05280	49.83039	-2543.57910	489.00983	160.14609	-2409.47534	481.47559	58.21444	-2379.92480	451.23917	49.02585	-2451.94727	435.22931	49.43952	-2415.24292	408.70822	42.28671	-2191.91870	199.50919	118.38732	-2219.90625	176.22289	197.72720	-2121.93408	199.95056	181.69528	-2269.81470	55.11606	234.37309	-2301.37915	61.78825	184.42145	-2254.21851	46.29441	118.62673
1911	7.64000	-2452.77197	1040.45679	276.47528	-2698.30200	953.42560	375.94485	-2769.78857	628.48193	415.45648	-2795.32642	594.54169	410.49509	-2821.12500	657.69049	391.15704	-2836.71753	617.05011	388.87756	-2796.27026	548.95679	402.52609	-2812.56250	548.42725	247.20601	-2773.83008	455.81290	401.81827	-2785.78394	409.25879	399.67276	-2835.45508	463.35574	394.86145	-2835.57764	415.38031	389.45477	-2857.35034	97.06956	364.17874	-2863.03271	105.52872	266.94324	-2786.05688	79.32822	315.35907	-3009.50757	50.18334	365.81604	-3034.05737	86.58165	296.90240	-3004.00342	63.10932	252.57143	-2449.04810	1050.51038	193.16551	-2663.04248	927.34802	78.01657	-2495.16895	588.23718	33.25176	-2487.33569	544.43866	38.77963	-2553.78638	571.66882	27.68407	-2539.46094	530.01935	33.92524	-2498.28735	504.97504	48.62057	-2553.60791	489.02142	159.39778	-2419.48804	482.60703	56.36976	-2390.97290	452.26544	47.20466	-2462.77173	435.89426	47.94011	-2425.09937	409.47601	40.97377	-2199.11182	203.09959	116.60136	-2226.79248	179.56718	196.08640	-2129.83057	206.89015	179.77524	-2271.97241	56.78371	233.76537	-2303.56836	61.60515	183.73427	-2255.81055	46.86641	118.18442
1912	7.64400	-2458.80762	1041.14551	276.28348	-2704.40479	953.99176	376.33139	-2775.38916	630.17755	416.23587	-2800.40723	595.59253	411.63513	-2826.43945	658.70258	392.41306	-2841.96826	618.10181	390.23297	-2801.80811	549.48621	403.79532	-2818.81689	549.60278	248.48622	-2778.26099	456.58264	402.87930	-2789.65015	409.88693	400.61795	-2839.96655	463.46689	395.84528	-2839.54419	415.51974	390.34967	-2857.33398	97.10842	364.27515	-2862.98511	105.63721	267.07687	-2786.03955	79.37735	315.47354	-3009.52124	50.16422	365.86975	-3033.87402	86.97324	298.05301	-3003.52759	63.30985	252.48520	-2455.88281	1050.92664	192.47891	-2669.66406	928.20752	78.65756	-2505.74292	588.08533	32.10347	-2498.15625	544.20880	37.56800	-2565.44629	571.80957	27.05706	-2550.71704	530.27527	32.91290	-2509.48096	504.51535	47.81957	-2563.74341	489.17389	158.84789	-2430.95972	483.44305	54.65357	-2402.73975	453.47180	45.17614	-2473.10620	436.42618	46.78738	-2433.81470	410.78445	39.32315	-2206.85156	206.86945	114.67618	-2233.62744	182.75464	194.32289	-2138.07227	213.87666	177.63898	-2274.22095	58.63054	233.52193	-2306.11133	61.72657	182.90837	-2257.60962	47.72670	117.63554
1913	7.64800	-2464.83105	1041.83044	275.79550	-2709.70532	957.22150	377.05014	-2779.80347	630.47949	417.42599	-2805.32886	596.47748	412.74014	-2831.65381	659.59668	393.67203	-2847.04053	618.94342	391.56857	-2807.10034	549.97345	405.04288	-2823.05469	549.71204	249.64955	-2782.55298	457.29721	403.90543	-2793.48511	410.48190	401.55640	-2844.43726	463.84729	396.38510	-2843.90723	415.85498	391.56503	-2857.37158	97.05137	364.47595	-2863.21558	105.60633	267.50391	-2786.01294	79.46371	315.59674	-3009.55200	50.04295	365.99252	-3033.78833	86.94823	298.21219	-3003.94702	63.30969	252.74149	-2461.04712	1051.62463	192.06783	-2676.20850	928.97437	79.21722	-2516.42920	587.94147	30.97523	-2509.05566	544.00232	36.38985	-2576.36792	571.98315	26.36928	-2561.75659	530.36383	32.13044	-2520.37158	504.79721	46.50193	-2573.94727	489.38702	158.49779	-2442.08594	484.42865	53.04270	-2411.64331	455.09219	43.58265	-2483.47534	436.93204	45.65919	-2444.01855	411.66849	38.08056	-2214.69775	210.70450	112.76398	-2240.64722	186.35265	192.70107	-2146.36597	220.96558	175.62671	-2277.05200	61.00488	232.25941	-2308.63330	61.87562	182.05353	-2259.48535	48.96027	116.95990
1914	7.65200	-2470.43628	1042.56396	275.45706	0.00000	0.00000	0.00000	-2785.34937	631.94110	418.36743	-2810.25317	597.21619	413.98248	-2836.31592	660.19464	394.52429	-2852.62720	619.84943	393.24243	-2812.17236	550.33582	406.36069	-2828.16040	550.28796	250.87190	-2786.74097	457.91275	404.95685	-2797.20093	411.02936	402.51117	-2848.59546	463.58884	397.92535	-2847.68335	415.92963	392.48874	-2857.58667	97.01363	364.57565	-2863.40674	105.79639	267.38361	-2786.26831	79.70487	315.64996	-3009.80981	49.57710	366.11053	-3034.03760	86.44044	298.38254	-3004.14941	62.95333	252.88371	-2466.63062	1052.19861	191.55505	-2682.58594	929.56677	79.69108	-2527.28589	587.76019	29.91832	-2520.54663	543.86566	35.16684	-2587.25317	572.07800	25.76914	-2572.46851	530.43152	31.38235	-2531.58984	504.75891	45.56923	-2584.24536	489.70010	158.24200	-2453.22925	485.45056	51.50554	-2423.28198	456.15335	42.01490	-2495.66040	437.57104	44.92196	-2454.44141	412.54489	36.93287	-2222.74194	214.65138	110.98020	-2247.86938	189.92517	190.99719	-2155.50854	228.16640	173.02480	-2279.72510	63.69802	231.53563	-2311.50439	62.22192	181.39821	-2261.29419	50.03311	116.33545
1915	7.65600	-2475.83179	1043.31433	275.07147	0.00000	0.00000	0.00000	-2789.55615	631.96985	419.60971	-2814.99438	597.85834	415.19397	-2841.42578	660.81732	395.73132	-2858.32739	620.73969	394.51208	-2817.20776	550.61615	407.46811	-2833.27563	550.77637	252.12688	-2790.92505	458.50058	405.96521	-2800.91724	411.51486	403.40610	-2852.04004	463.20068	398.53741	-2850.98169	415.78369	393.06250	-2858.06934	97.09192	364.53622	-2864.04395	105.73745	267.86960	-2786.60645	79.91204	315.66214	-3010.15381	48.99813	366.18570	-3034.66113	85.54367	298.53830	-3005.24951	62.20691	253.05893	-2472.74634	1052.38477	191.34251	-2689.03247	930.14801	80.08179	-2538.21655	587.65485	28.94957	-2531.68628	543.73218	34.19365	-2598.32520	572.29974	25.27860	-2585.41577	530.62531	31.13156	-2543.32153	504.38382	45.20228	-2594.57373	490.07257	158.16098	-2464.56323	486.43494	50.03138	-2434.08618	457.50934	40.44015	-2506.33203	438.17847	44.00836	-2465.06885	413.53458	35.78186	-2230.89917	218.61554	109.12270	0.00000	0.00000	0.00000	-2164.84863	235.10426	170.58026	-2282.47900	66.41780	230.91518	-2314.14062	62.60095	180.66965	-2263.23560	51.69521	115.73309
1916	7.66000	-2481.47827	1043.88135	274.79941	0.00000	0.00000	0.00000	-2794.92944	633.34998	420.44501	-2819.63428	598.34467	416.43597	-2845.74414	661.12817	396.95605	-2861.75317	620.56964	395.47745	-2822.18921	550.88660	408.72903	-2839.44067	551.78143	253.43517	-2795.05029	458.98752	406.96945	-2804.52759	411.95032	404.18768	-2857.01245	463.53717	400.01053	-2855.16919	415.94913	394.35983	-2858.46338	97.11794	364.50479	-2864.29761	105.89526	267.63037	-2786.92700	80.21945	315.66980	-3010.48706	48.48460	366.17020	-3035.01196	84.82827	298.52637	-3004.65845	61.68990	252.84935	-2478.57104	1052.63367	191.02609	-2695.93579	931.55054	80.98853	-2549.21802	587.64465	27.98673	-2542.88159	543.62299	33.24188	-2609.45605	572.57660	24.84576	-2596.79102	530.83453	30.64085	-2554.68481	504.43054	44.46533	-2604.95972	490.55936	158.25343	-2475.90186	487.58957	48.74117	-2445.11768	458.86301	38.93758	-2517.18066	438.82632	43.17347	-2477.28467	414.11130	35.09794	-2239.43408	222.48978	107.26492	-2263.10596	197.16881	187.82242	-2174.26294	242.08148	168.16924	-2285.45947	69.27057	230.33344	-2316.95386	63.42134	180.00676	-2265.01660	53.75210	115.27692
1917	7.66400	-2486.87061	1044.54822	274.58981	0.00000	0.00000	0.00000	-2798.86475	632.97205	421.70694	-2824.16846	598.72882	417.67465	-2850.94946	661.52496	398.55463	-2866.49438	620.88147	396.76373	-2827.10132	551.11414	409.78281	-2843.58423	551.74823	254.53485	-2799.08301	459.52545	407.85120	-2808.14990	412.36035	405.01532	-2861.14429	463.48184	400.96725	-2858.51953	415.80496	394.75775	-2858.74023	97.14350	364.51263	-2864.61060	105.92712	267.72656	-2787.16504	80.43311	315.71057	-3010.67700	48.14427	366.15460	-3035.29419	84.36680	298.53244	-3004.87549	61.34297	252.88199	-2484.28833	1052.83020	190.72656	-2702.62134	932.56683	81.61707	-2561.54932	587.36670	27.45774	-2554.12671	543.61072	32.42808	-2619.67529	572.90436	24.36698	-2608.11792	531.10553	30.22886	-2566.36401	504.65906	43.81499	-2615.30225	491.05621	158.44540	-2487.34497	488.51578	47.26543	-2456.37280	460.14288	37.49431	-2528.10132	439.50272	42.43209	-2486.56763	415.46466	33.86036	-2248.21460	226.38530	105.41417	0.00000	0.00000	0.00000	-2183.49121	248.84697	166.00183	-2288.59253	72.32421	229.48424	-2319.94604	64.32664	179.12454	-2267.73682	56.10261	114.46014
1918	7.66800	-2492.52466	1045.07764	274.37488	0.00000	0.00000	0.00000	-2803.36255	633.35150	422.73752	-2828.65234	599.04065	418.91415	-2855.16479	661.63617	399.27536	-2871.54419	621.09277	398.63251	-2832.03442	551.37665	410.85587	-2849.61475	552.63696	255.66556	-2803.05591	460.10745	408.68283	-2811.69897	412.84250	405.79022	-2865.18237	463.44431	401.88342	-2861.95728	415.77603	395.62430	-2858.92969	97.16409	364.59805	-2864.87476	106.00281	267.82562	-2787.30444	80.60953	315.70963	-3010.77637	47.82817	366.20377	-3035.45801	84.05103	298.61469	-3005.21655	61.10653	253.09697	-2489.85962	1053.12500	190.40199	-2709.38379	933.62610	82.26095	-2572.65796	587.43451	26.69857	-2565.23145	543.69128	31.61121	-2630.84082	573.24219	24.13719	-2619.44238	531.41327	29.88355	-2577.10547	504.93567	43.13813	-2625.74976	491.63226	158.70262	-2498.49292	489.65018	46.01498	-2467.64282	461.43716	36.10720	-2539.12061	440.17636	41.70595	-2497.45361	416.47067	32.94962	-2257.03198	230.49721	103.72636	-2278.86890	204.55289	184.94635	-2193.02368	255.80888	163.50792	-2291.82715	75.57997	228.30916	-2323.28564	65.24153	178.15100	-2270.80493	58.65878	113.56674
